<svg id="visual" viewBox="0 0 1920 1080" width="1920" height="1080" xmlns="http://www.w3.org/2000/svg" xmlns:xlink="http://www.w3.org/1999/xlink" version="1.1"><rect x="0" y="0" width="1920" height="1080" fill="#001220"></rect><defs><linearGradient id="grad1_0" x1="43.8%" y1="0%" x2="100%" y2="100%"><stop offset="14.444444444444446%" stop-color="#001220" stop-opacity="1"></stop><stop offset="85.55555555555554%" stop-color="#001220" stop-opacity="1"></stop></linearGradient></defs><defs><linearGradient id="grad2_0" x1="0%" y1="0%" x2="56.3%" y2="100%"><stop offset="14.444444444444446%" stop-color="#001220" stop-opacity="1"></stop><stop offset="85.55555555555554%" stop-color="#001220" stop-opacity="1"></stop></linearGradient></defs><g transform="translate(1920, 0)"><path d="M0 1026C-49.3 1006.9 -98.5 987.8 -136.1 946.3C-173.6 904.7 -199.4 840.7 -244.5 832.8C-289.7 825 -354.2 873.4 -397.6 870.5C-440.9 867.6 -463.1 813.5 -512 796.7C-560.9 779.8 -636.4 800.2 -671.9 775.4C-707.4 750.6 -702.8 680.7 -742.1 643.1C-781.5 605.4 -864.7 600 -849.7 546C-834.6 492.1 -721.2 389.5 -761.4 347.7C-801.5 305.9 -995.2 324.8 -983.5 288.8C-971.8 252.8 -754.7 161.9 -727.5 104.6C-700.4 47.3 -863.2 23.7 -1026 0L0 0Z" fill="#FBAE3C"></path></g><g transform="translate(0, 1080)"><path d="M0 -1026C56.1 -1049.1 112.2 -1072.3 146 -1015.6C179.8 -958.9 191.3 -822.3 233.8 -796.4C276.4 -770.4 350.1 -855.1 389.2 -852.3C428.4 -849.5 433 -759.3 455.8 -709.2C478.5 -659 519.4 -649 529.1 -610.6C538.9 -572.3 517.5 -505.8 569.8 -493.8C622.1 -481.7 748 -524.3 784 -503.9C820.1 -483.5 766.2 -400.2 759.5 -346.9C752.9 -293.5 793.5 -270.2 808.9 -237.5C824.2 -204.8 814.3 -162.8 846.3 -121.7C878.3 -80.5 952.1 -40.3 1026 0L0 0Z" fill="#FBAE3C"></path></g></svg>